<?xml version="1.0" encoding="UTF-8"?>
<svg enable-background="new 0 0 595.28 841.89" viewBox="0 0 595.28 841.89" xmlns="http://www.w3.org/2000/svg">
 <path d="m376.999,288.89c.162-1.172 1.824-.843 3-1-.16,1.172-1.822.843-3,1z" fill-rule="evenodd"/>
 <path d="m338.999,290.89c1.258.247 1.01,1.988 0,2-1.453-.443.103-.878 0-2z" fill-rule="evenodd"/>
 <path d="m342.999,302.89c.028-.973 1.225-.776 2-1-.026.973-1.223.776-2,1z" fill-rule="evenodd"/>
 <path d="m312.999,304.89c-.026.973-1.223.776-2,1 .028-.973 1.225-.776 2-1z" fill-rule="evenodd"/>
 <path d="m294,313.89c-.517-.517.723-1.277 1-1 .517.517-.723,1.277-1,1z" fill-rule="evenodd"/>
 <path d="m368 316.89c-0.435 1.23-1.279 2.054-3 2 0.437-1.23 1.281-2.054 3-2z" fill-rule="evenodd"/>
 <path d="m415.999,328.89c.028-.973 1.225-.776 2-1-.026.973-1.223.776-2,1z" fill-rule="evenodd"/>
 <path d="m368.999,341.89c-.517-.517.724-1.277 1-1 .518.517-.722,1.277-1,1z" fill-rule="evenodd"/>
 <path d="m212,342.89c-.517-.517.723-1.277 1-1 .517.517-.723,1.277-1,1z" fill-rule="evenodd"/>
 <path d="m160,343.89c-.517-.517.723-1.277 1-1 .517.517-.723,1.277-1,1z" fill-rule="evenodd"/>
 <path d="m226,345.89c.19-1.135 1.003-.555 1,0-.19,1.135-1.003.555-1,0z" fill-rule="evenodd"/>
 <path d="m236,347.89c.183-.106 2.869-.131 3,0 1.848,1.848-6.056,1.77-3,0z" fill-rule="evenodd"/>
 <path d="m168,351.89c.027-.973 1.224-.776 2-1-.027.973-1.224.776-2,1z" fill-rule="evenodd"/>
 <path d="m340.999,355.89c-.517-.517.724-1.277 1-1 .518.517-.722,1.277-1,1z" fill-rule="evenodd"/>
 <path d="m163,364.89c-.517-.517.723-1.277 1-1 .517.517-.723,1.277-1,1z" fill-rule="evenodd"/>
 <path d="m170,366.89c.125-2.208 4.242-.425 6-1 .665,2.685 4.391,5.315 2,8-3.393-1.607-3.695-6.305-8-7z" fill-rule="evenodd"/>
 <path d="m221,387.89c-.517-.517.723-1.277 1-1 .517.517-.723,1.277-1,1z" fill-rule="evenodd"/>
 <path d="m175,393.89c-.517-.517.723-1.277 1-1 .517.517-.723,1.277-1,1z" fill-rule="evenodd"/>
 <path d="m194,394.89c-.517-.517.723-1.277 1-1 .517.517-.723,1.277-1,1z" fill-rule="evenodd"/>
 <path d="m209,400.89c-.517-.517.723-1.277 1-1 .517.517-.723,1.277-1,1z" fill-rule="evenodd"/>
 <path d="m182,404.89c-.517-.517.723-1.277 1-1 .517.517-.723,1.277-1,1z" fill-rule="evenodd"/>
 <path d="m214,405.89c-.517-.517.723-1.277 1-1 .517.517-.723,1.277-1,1z" fill-rule="evenodd"/>
 <path d="m213,406.89c3.36-1.027 1.557,3.11 2,5-.924,1.743.034,5.367-3,5 2.092,2.386-.244,6.406-1,9v5c-.777,1.824-1.075-.599-1-2v-9c.502-4.165 3.498-5.835 4-10-.529-.804-1.043-1.623-1-3zm-1,12c-.277-.277-1.517.483-1,1 .277.277 1.517-.483 1-1z" fill-rule="evenodd"/>
 <path d="m206,434.89c-.517-.518.723-1.276 1-1 .517.518-.723,1.277-1,1z" fill-rule="evenodd"/>
 <path d="m218,436.89c.19-1.135 1.003-.555 1,0-.19,1.135-1.003.555-1,0z" fill-rule="evenodd"/>
 <path d="m222,436.89c-.517-.518.723-1.276 1-1 .517.518-.723,1.277-1,1z" fill-rule="evenodd"/>
 <path d="m204,437.89c-.517-.518.723-1.276 1-1 .517.518-.723,1.277-1,1z" fill-rule="evenodd"/>
 <path d="m215,440.89c-.517-.518.723-1.276 1-1 .517.518-.723,1.277-1,1z" fill-rule="evenodd"/>
 <path d="m214,442.89c-.517-.518.723-1.276 1-1 .517.518-.723,1.277-1,1z" fill-rule="evenodd"/>
 <path d="m235,458.89c.847-2.931 3.22.598 5,0-.847,2.931-3.22-.598-5,0z" fill-rule="evenodd"/>
 <path d="m324 469.89c3.444 2.584-5.143 2.416 0 0z" fill-rule="evenodd"/>
 <path d="m246,479.89c.31-1.357 2.504-.829 4-1-.31,1.358-2.504.829-4,1z" fill-rule="evenodd"/>
 <path d="m232,481.89c.162-1.172 1.823-.844 3-1-.162,1.172-1.823.844-3,1z" fill-rule="evenodd"/>
 <path d="m228,522.89c.19-1.135 1.003-.556 1,0-.19,1.135-1.003.556-1,0z" fill-rule="evenodd"/>
 <path d="m230,522.89c-.517-.518.723-1.276 1-1 .517.518-.723,1.277-1,1z" fill-rule="evenodd"/>
 <path d="m218,532.89c-.517-.518.723-1.276 1-1 .517.518-.723,1.277-1,1z" fill-rule="evenodd"/>
 <path d="m424.999,547.89c.162-1.172 1.824-.844 3-1-.16,1.172-1.822.844-3,1z" fill-rule="evenodd"/>
 <path d="m417.999,548.89c-.517-.518.724-1.276 1-1 .518.518-.722,1.277-1,1z" fill-rule="evenodd"/>
 <path d="m424 547.89c-2.195 3.055-6.404-1.154 0 0z" fill-rule="evenodd"/>
 <path d="m256,553.89c.027-.973 1.224-.776 2-1-.027.973-1.224.777-2,1z" fill-rule="evenodd"/>
 <path d="m218,586.89c-10.847-4.204-25.295-9.97-20-27-3.105-3.228-7.043-5.624-11-8 1.935-3.586-.385-3.664-1-7 3.941,6.059 8.114,11.886 16,14 6.011-1.973 15.782-.954 22,0-.468,3.135 2.514,2.819 4,4-2.466,2.399-5.641-2.976-9-3-7.659.061-11.972,1.512-19,0-2.397,4.502-1.848,9.594 0,14 2.964-1.453-1.317-3.9 0-7 .777-1.824 1.075.599 1,2-.127,1.794 1.224,2.109 1,4 1.267,3.066 3.405,5.262 5,8 7.235,2.401 16.246,7.338 26,4 1.985-1.408-3.883-3.384-5-5 3.421-2.376 5.649,4.983 11,4-.733-.934-1.818-1.515-3-2 .91-2.715 3.504,1.02 5,1h11c3.225-.775 5.91-2.091 8-4 1.454.443-.102.878 0,2 11.4-4.267 25.547-5.786 35-12 5.003-2.996 9.985-6.016 14.999-9 4.84-2.038 9.422-7.818 15-6-2.008-2.039.443-1.961 1-4 1.402.354.087,1.761-1,2 8.043,1.364 17.428-4.564 27-5-.964,2.035-3.839,2.16-7,2 22.44,1.586 44.907.065 68,0 2.371-.826 4.607,1.409 1,1h-3-3c-10.484,2.182-24.889.443-37,1-2.826-.826-2.589,1.409-5,1h-18c-3.652.679-7.271,1.396-12,1-20.92,4.08-35.258,14.742-50.999,24-11.78,1.887-22.784,4.55-33,8-6.455-.121-12.47.197-17,2h-17zm-16-12c-.277-.276-1.517.482-1,1 .277.277 1.517-.482 1-1z" fill-rule="evenodd"/>
 <path d="m353.999,255.89c4.204,3.176 11.37,3.083 16,5 1.356.561 2.312,2.058 4,3 5.741,3.201 10.846,6.732 16,11 3.041.627 8.615-1.28 10,1-1.176.156-2.838-.172-3,1 2.553.116 5.146.188 5,3-3.576-1.423-7.143-2.857-12-3-7.079-5.92-14.963-11.037-23-16-5.734.401-8.714-1.951-13-3-9.535-1.203-13.242,3.424-19,6-10.633,1.034-16.141,7.192-23,12-.656-2.995-2.137.956-4,0-4.564,4.101-10.78,6.552-12.999,13v6c1.179,3.154 3.111,5.556 4.999,8-1.912,3.616 2.54,9.434 5,12v-11c6.22-8.448 8.249-21.086 19-25 4.498-.164 8.891-.223 10,3-1.219,1.514-1.963,8.614 0,10 1.028-3.64 3.148-6.186 4-10 1.378-3.16-2.475-6.035 0-7 5.295,4.721-3.346,15.669 0,19 3.73-.456 4.907-.416 9-2 1.037-6.297 2.829-11.838 2-20 2.653.319-.935-5.602 3-4-.363,2.048-3.339,6.553-1,8-.053-1.72.771-2.563 2-3-1.945,5.388-3.329,11.337-4,18 10.108,2.441 7.895-7.439 10-13 .668,5.667-.912,9.087-2,13 1.76-.575 5.877,1.208 6-1 3.211-.832 2.074-.852 4,1 3.426-4.575 7.574-8.428 13-11 1.786,1.214 5.819.183 7,2-2.638,1.362-6.817,1.182-10,2-.889,1.844-7.501,3.075-5,5-.714-1.622 4.716-1.622 4,0-5.115-.116-7.045,2.954-11,4-18.834-.835-32.611,3.388-40,14-.947,9.282 2.051,14.617 7,18 12.8,1.792 22.998-4.327 34-1 .308,3.125-2.889-2.542-3,1 3.058,1.944 7.717,2.284 13,2 3.858-1.124 4.621-2.365 9-1 1.599-.815 6.104-3.792 8-1-4.617-.792-2.859,1.112-4,2-8.034.467-14.744,3.558-23,1-.109,5.262-2.268-.418-7,2-1.891,1.634 4.035,3.909 4,7-.722,3.056 1.023,3.644 1,6 1.453.547 5.17-1.168 5,1-1.785,2.039-3.688.281-2,4 3.316,2.598 8.561-1.402 10-4-2.56-.105-4.767-.566-6-2 3.812-.334 10.322,3.364 12-1-3.453.787-4.397-.935-5-3 3.017-1.317 8.568-.1 11-2-1.063.043-2.539-.471-1-1 2.072.595 6.569-1.236 7,1-4.234,2.097-12.047.62-15,4 18.34,1.967 39.141,4.628 56,5-16.879,3.875-32.289-2.373-49-2-7.348,1.984-12.482,6.184-20,8-.867,3.133-2.477,5.522-5,7-10.472,3.861-20.884,7.783-33,10-11.13.798-17.596-3.07-24-7-4.214-8.119-9.521-15.145-10.999-26-10.835,1.832-18.187,7.146-29,9-4.16,2.173-9.788,2.879-14,5-6.113.554-11.464,1.869-14,6 1.673,2.327 2.612,5.388 3,9-2.358.309-1.86,3.473-5,3-.309,3.324-3.473-4.278-3,1-2.343,5.657-2.029,13.971-2,22-.703,15.5-.628,30.309-2,47 4.449.782 6.001-1.332 10-1 29.02,8.313 50.856,23.811 80.999,31h16c12.516-3.819 27.999-4.669 40-9 9.949-.061 19.995-5.328 28-4-10.908,2.758-23.473,3.859-33,8-15.806,1.86-29.88,5.452-44,9 .22-1.257 1.558-2.044-1-2-6.039.373-11.051-.282-16-1-1.126-1.539-2.872-2.461-4-4-15.784-3.215-25.798-12.201-41.999-15-3.188-4.479-9.547-5.786-15-8-5.439-1.438-12.542-4.698-19-2 .042,3.292 1.688,4.979 1,9 3.942.275 3.058-4.275 7-4 .844,3.573 5.156-2.573 6,1-3.042,1.157-6.822,1.572-8,2 2.897.56-1.534,1.56-1,3-3.951.521 3.951,1.479 0,2-6.082-1.371-10.854.888-17,2 .012-1.321 1.752-.914 2-2h-17c-7.794.898-15.355,5-22,4-10.127,6.053-21.683,19.125-14,34 4.574,2.426 8.833,5.168 15,6 2.88-.119 6.546.546 8-1h4c1.401.075 3.824-.224 2-1-1.758-.575-5.875,1.209-6-1h17c2.735-.932 4.265-3.068 7-4-1.913,2.754-4.246,5.088-7,7-6.213-2.346-16.648,4.531-23,2 1.177-.156 2.838.172 3-1-15.769-2.638-17.659,15.116-11,24 .373-4.073-3.986-10.534 0-12-1.632,13.299 5.515,17.818 13,22 9.854.521 17.952-.715 25-3-3.787,3.771 2.967,2.108 4,4-12.218-.826-22.464,2.508-32-1-3.964,6.093-.594,13.808 2,19-5.637-4.29-6.831-13.799-3-20-8.643-4.357-15.003-10.997-14-25 .799-4.2 5.354-4.646 6-9-4.553-1.113-8.23-3.104-11-6-6.353.02-9.328-3.339-12-7-1.073-2.594-2.429-4.904-2-9 2.199-3.468 6.399-4.935 11-6 6.871-5.796 14.42-10.913 22-16 .183-6.816 3.59-10.41 7-14-4.94-11.393-10.261-22.405-15-34-3.839-4.494-6.546-10.12-8-17-3.896-4.437-5.05-11.617-9-16-2-10-7.422-16.578-11-25v-2c3.276-5.391 7.049-10.284 14-12 5.005,1.995 9.662,4.338 13,8 .625,3.709 2.811,5.855 4,9 2.248,1.752.306,7.694 4,8 5.185.519 6.2-3.134 10-4 6.203.536 8.253-3.08 14-3 .255-5.745-.749-12.749 1-17 7.038-.629 11.618-3.715 20-3 .841,3.492 3.342,5.324 3,10-1.412,6.04 1.697,6.755 5,4h-4c20.414-6.586 37.749-16.251 60-21-1.805-14.859 4.802-22.376 1-34 4.659-9.674 14.682-13.985 23.999-19 4.124-3.21 9.397-5.271 15-7 6.091-1.576 10.549-4.786 16-7h6zm-200.999,217c-2.129,8.048 3.682,14.332 11,16 .31-3.977-2.31-5.023-2-9v-4c.839-1.161 1.319-2.681 1-5 .598-1.497 5.032-4.174 3-5-3.651,3.016-8.789,4.544-13,7zm83-114c-.138-1.862-.658-3.342-2-4-1.376,4.351.302,5.575 0,11 2.488.154 3.096-1.571 5-2 .25-2.917-1.883-3.45-3-5zm-11,22c-3.555-1.555-.604,3.396-3,3-.215-5.452.689-12.022-1-16 .429-3.869 1.095-3.558-1-6 2.436.646 5.144,2.02 5-2-1.786,1.214-5.817.183-7,2 1.592,2.118 3.378,9.23 1,12v-6c-3.134-.249-1.634-10.3-6-6 5.817,1.214-3.274.183-3,2 2.981,2.087-1.328,5.26 0,9 1.25,2.228 2.408,11.277-1,12v-8c-2.323,6.011-.341,16.325-1,24-1.428.984-3.6,6.294-1,8 .553-1.78.514-4.153 2-5-.495,4.838 1.415,12.082-2,14-.445-2.555-1.402-4.598-3-6 .147,2.744.186,5.156-2,3-.619,2.714 1.27,7.937-1,9-2.244-5.218-.258-12.234 2-16-3.687-.647-5.245-3.422-6-7 1.182.144 2.267,1.781 3,0-1.397-.697-4.653-4.553-3-5 1.322.012.914,1.753 2,2 .528-4.195-1.747-5.586-2-9-1.464-.87-3.169-1.497-3-4-.889-.294-4.378-2.706-2-3 1.322.012.914,1.753 2,2 .216-4.883-4.715-4.618-6-8-.184-5.529-3.173-15.324-8-10 7.171,6.163 8.021,18.646 14,26 .113-1.22.299-2.368 2-2-1.301,2.483 2.934,4.15 0,5 .129-1.795-.993-2.34-3-2-2.923-5.41-5.47-11.196-9-16-.831-5.503-3.875-8.792-6-13-8.632.035-14.194,3.139-15,11 1.851,3.482 3.915,6.752 6,10 .013,3.782 2.665,6.866 4,10 .362.85-.328,2.135 0,3 1.5,3.958 4.839,8.315 7,12 2.54,4.331 4.829,8.647 8,12 2.068-3.74-1.463-5.17-3-8 2.813-1.502-2.539-4.211 0-5 5.4,5.267 3.956,17.378 9,23 .17-1.496-.357-3.69 1-4 1.234,6.233-3.234,6.767-2,13-4.145-.145-4.696,3.304-7,5 .12,1.663-.546,9.057 1,6 .17-1.496-.357-3.69 1-4 .485,1.78 1.066-.434 2-1 .409,2.409-1.826,2.174-1,5 4.017-.983 8.774-1.226 14-1 2.452-1.332-1.802-3.019 1-4 1.067.933.311,3.688 3,3 .221-.779.837-1.162 2-1 2.191-1.955-2.953-9.91 2-11 .409,2.409-1.826,2.174-1,5 3.686-.952 2.352,8.226 4,6 .547-1.453-1.168-5.169 1-5 1.651.016.56,2.773 2,3-.857-3.19 1.574-3.093 2-5-2.448-.111-.212-3.306 1-3 .071,3.983-3.788,7.67 1,11 .595-2.071-1.236-6.569 1-7 1.128,1.871 1.183,4.817 5,4-.496-5.838-3.63-9.037-3-16-4.698-1.053 1.643,3.372-2,4-.818-1.915-.638-9.939-2-8-.609,2.391 1.255,7.255-1,8-1.812-2.438 1.41-5.933-2-8 1.212.306 3.448-2.889 1-3 .003.555-.81,1.135-1,0 2.831-4.42 4.515-12.599 3-16-.224.776-.027,1.973-1,2-.783-6.19 3.321-11.488 1-18 1.871.054 2.117-.77 1-2 1.427.239 1.687,1.646 3,2 3.764-7.115 4.412-16.508 4-24 .054,1.72-.77,2.563-2,3-.175,6.159.828,13.495-2,17-.802-3.469 1.489-3.844 1-7zm-33,54c-.303-5.03-3.213-7.453-4-12-1.763.286-3.097-4.709-4-2 3.47,3.863 4.53,10.137 8,14zm36-29v-11-5c.319-1.225-.161-6.176-1-3 1.035,4.583-5.438,4.662-1,7-1.376-.043-2.196.471-3,1-.489,3.156 1.802,3.531 1,7-2.25.948-1.865,3.229 0,5 .508-3.492.45-7.55 2-10 .578,7.245-2.293,11.041-3,17 .17,1.496-.357,3.69 1,4-.319,1.225.161,6.177 1,3-.505-4.304-.956-7.579 2-4 1.692-3.482.369-3.494-2-5 3.364.364 1.667-4.333 3-6zm-23-4c2.296-13.371.361-30.973 1-46-4.602.065-7.962,1.372-11,3-1.603,3.73.263,10.93-3,13-1.427-.239-1.687-1.647-3-2 5.121,10.88 10.171,21.829 16,32zm49-62c7.586-5.081 18.135-7.198 27-11 5.164-1.169 9.425-3.242 14-5 2.833-.167 4.167-1.833 6.999-2 3.322-3 .57-1.111-3-1-18.061,7.271-38.823,11.842-54.999,21 4.245.245 5.384-2.616 10-2zm72.999-59c2.488-.154 3.096,1.571 5,2 1.191-2.973-4.214-4.296-5-2zm-14,22c.559-2.039 3.01-1.961 1-4 2.694,1.15 4.808-4.796 3-2-1.181.144-2.267,1.781-3,0 6.02-1.631 4.205-6.675 8-9h-4c-3.582,8.422-12.391,16.934-9,29 1.233-1.434 3.44-1.895 6-2 1.213-4.879-2.258-5.075-3-8 2.91-.869 1.125-1.497 1-4zm-7,2v12c1.366-7.263 1.37-14.804 5-18-.144-2.557 4.43-5.465 2-7-2.455,4.211-3.983,9.349-7,13zm18-24c-3.979.388-9.027,4.926-7,8 1.278-3.723 4.836-5.165 7-8zm1,7c-.623,2.375-1.343,4.655-4,5-.443,2.555-1.401,4.598-3,6 .225,1.891-1.126,2.206-1,4-1.556-.08-.692,2.908 0,1 .657-1.439 2.865-6.341 4-4-1.543,2.123-2.876,4.456-4,7 1.773,2.595 5.572,8.382 5,10-2.542-1.457-1.935-6.063-5-7 1.229,3.495 4.252,12.267 7,8 .607,3.061 2.124,5.21 3,8-2.306.306-1.109-2.889-3-3 .676,2.658 1.576,5.092 3,7 .225-.776.028-1.973 1-2 .245,6.44 11.224,7.421 17,5-1.935-1.732-2.854-4.479-5-6-3.059-.725-2.939,1.725-6,1-4.895-2.104-7.932-6.067-10-11-.81-5.028-.742-11.023-1-14 3.748,3.628.254-5.623 4-5 .171,1.496-.355,3.69 1,4 .562-1.44 1.562-2.44 3-3-.084-5.366-1.464-8.502-2-11-1.912,1.471-4.086,7.846-6,6 .99-3.708 7.814-6.813 6-10-.902,1.763-2.236,3.097-4,4zm-30.999,33c4.766.099 7.47-1.864 10.999-3-.418-3.248-4.451-2.881-4-7-2.334-1.666-2.567-5.432-3.999-8-.211-1.122-1.11-1.557-2-2-1.338,6.397-2.887,13.048-1,20zm12.999-2c-.775.224-1.972.027-2,1 .777-.224 1.974-.027 2-1zm-3,4c-4.935,2.398-10.884,3.782-15.999,6-6.053.947-10.79,3.21-16,5-4.812,2.522-11.777,2.89-15,7 1.7-.224 2.474,1.127 0,1-.221-.779-.837-1.163-2-1v2c-4.871,1.129-9.526,2.474-13,5 5.652,1.42 13.667-2.829 20-4 6.217-2.449 12.687-4.646 19-7 12.931-4.402 26.462-8.204 37.999-14-2.704-6.087-10.307-.788-15,0zm17,0c-.276-.277-1.517.483-1,1 .278.277 1.518-.483 1-1zm25,4c-.276-.277-1.517.483-1,1 .278.277 1.518-.483 1-1zm-18,8c-2.004-1.662-4.646-2.685-5-6-3.247,1.154-6.15-3.055-8,0 4.782.908 8.621,8.016 13,6zm33,5c-.203-8.463-5.862-11.471-14-12-.862,4.863 2.863,5.137 2,10-5.147,1.621-10.497,4.576-16,3-.223.776-.026,1.973-1,2-.043-1.376.473-2.196 1-3-9.251-2.415-15.938-7.396-24-11-3.15,2.183-9.08,1.586-10.999,5 9.549,7.117 17.756,15.578 31.999,18 1.322-.012.915-1.753 2-2 1.453,4.272 6.711-.016 10,0 1.232-.862 2.77-6.438 4-4-1.008.012-1.256,1.753 0,2 1.131-2.204 1.15-5.517 4-6-.957,2.043-2.042,3.957-3,6 5.782.447 10.224-.444 13-3 .724-3.056-1.021-3.644-1-6-4.238-1.505-7.921,2.656-9,1 2.767-2.714 8.959-4.394 11,0zm-30,14c-7.543-1.79-13.518-5.149-20-8-5.08-4.252-9.756-8.91-15.999-12 .645,3.689 1.026,7.64 3,10-.003-.555.811-1.135.999,0-.223,1.891 1.128,2.206 1,4 9.979,8.023 20.344,15.658 38,16 .676-2.658 1.575-5.092 3-7 1.374,2.279-2.576,3.759 0,4 1.387-.614.152-3.85 2-4 .428,4.094-2.112,5.221-4,7 5.734.733 7.37-2.631 12-3 .165-3.071 1.657-7.504 3-12-10.268-.935-14.322,4.343-23,5zm1,11c-3.219.22-4.23-1.769-8-1-2.986-3.012-8.497-3.502-12-6-2.6-.4-3.016-2.984-6-3-.697-1.397-4.551-4.653-5-3 4.94,9.066 15.779,17.548 31,13zm22-6c4.104-2.23 11.846-.821 10-9-1.672-1.326-3.351-2.649-7-2-2.338,1.7-5.651,7.63-3,11zm-144.999-23c-.877,3.21 2.593,2.073 3,4-4.339,3.946-1.713,13.025 5,12 2.149-1.517 5.632-1.701 7-4 .043,1.376-.471,2.196-1,3 2.409.409 2.174-1.826 5-1-1.154-3.249 3.055-6.151 0-8-.113,1.22-.299,2.368-2,2 1.375-1.283 1.741-5.979-1-6-.575,1.758 1.208,5.875-1,6-.314-1.352-1.423-1.91-1-4-4.084-.751-4.536,2.131-6,4-.182-5.151-3.682-6.984-8-8zm12,3c2.198-.727 3.322-4.693 6-2 .132-2.465.151-4.818-1-6-1.496.17-3.69-.357-4,1 1.009.012 1.258,1.753 0,2-4.427-1.033-7.176-1.28-12,1 1.44,2.212 2.44-1.259 3,1 3.547,2.356 3.124,2.738 8,3zm-53-1c-.294-.889-2.706-4.378-3-2 2.094,2.621 7.716,9.944 3,13-2.26-4.964-.274-8.087-4-11-.224.776-.027,1.973-1,2-1.151-1.182-1.132-3.535-1-6-4.916.628-1.476,3.396-3,7 .776.224 1.973.027 2,1-4.62,1.286-2.751-3.916-5-5 .329,3.452-5.613,3.269-3,6-1.003.003-1.19-.81-2-1-.598,1.78 2.931,4.153 0,5 .043-1.063-.471-2.54-1-1 .294,3.484 2.706-.084 3,2-.581,3.873 2.386,12.067 6,15 3.177-3.823 9.169-4.831 14-7-.908-.275-3.359-3.725-1-4 1.438,1.562 2.52,3.48 5,4-1.54-6.14-8.328-12.321-7-18-.299,1.625 1.35,2.697 2,1-2.039-.558-1.961-3.009-4-1zm6,4c-1.086-.39-2.401-1.2-1,0 1.168,4.499 2,9.333 5,12 .944-6.277-4.402-6.265-4-12zm163.999-3c-3.438.383-6.233-5.022-9-2 2.965.094 6.348,4.91 9,2zm-107.999,1c-.277-.277-1.517.483-1,1 .277.277 1.517-.483 1-1zm12,2c-.277-.277-1.517.483-1,1 .277.277 1.517-.483 1-1zm-4,1c-.277-.277-1.517.483-1,1 .277.277 1.517-.483 1-1zm2,3c2.561-.772 5.669-.998 7-3-3.558-.224-5.992.674-7,3zm120.999-1c.408,2.925 3.422,3.245 5,5-.219-3.13-2.303-7.403-5-5zm-125.999,1c-.277-.277-1.517.483-1,1 .277.277 1.517-.483 1-1zm-3,2c-.984,8.287-17.906,6.927-24,4 1.121,3.15.09,2.264 0,6 8.289,4.879 18.705-.751 25-4v-4c1.901,2.759 6.864,2.249 8-1-2.21-5.177-6.436,1.754-9-1zm-36,8c3.711-.955 9.479.146 11-3-1.322-.012-.914-1.753-2-2-2.174,2.493-7.887,1.447-9,5zm25-4c-.277-.277-1.517.483-1,1 .277.277 1.517-.483 1-1zm-28,5c-1.352-.314-1.91-1.423-4-1-.224,1.891 1.127,2.206 1,4-1.714-1.367-3.932-3.231-4,1 4.872,1.162 9.86-2.748 8-5-.057.61-.149,1.184-1,1zm39,4c1.523-1.523-1.539-5.764-2-3 .062-.374 1.847,3.153 2,3zm-60,0c2.555-.445 4.598-1.402 6-3-9.634-.634-15.401,2.599-19,8 6.604-2.781-1.618,2.829 2,5 2.454-4.547 7.648-6.351 11-10zm2,2c.416-2.251 5.483.15 5-3-1.737.357-7.613,1.593-5,3zm35,1c.043-1.063-.471-2.54-1-1-.043,1.064.471,2.54 1,1zm-22,0c-.012-1.009-1.752-1.258-2,0 1.122-.101 1.557,1.454 2,0zm1,0c-.433,3.766 2.113,4.554 4,6 1.378-1.289.99-4.344 1-7-2.319-.319-3.839.161-5,1zm45-1c-.277-.277-1.517.483-1,1 .277.277 1.517-.483 1-1zm-6,4c-.277-.277-1.517.483-1,1 .277.277 1.517-.483 1-1zm-2,13c-1.7-1.357-.1-11.156-2-9 .898,2.768-2.054,9.388 2,9zm-16-5c.075-1.401-.223-3.824-1-2-.075,1.401.223,3.824 1,2zm-6,28c-.445-2.555-1.402-4.598-3-6-.399,2.719 4.692,8.398 3,6zm-2,0c-.277-.277-1.517.483-1,1 .277.277 1.517-.483 1-1zm1,2c-.277-.277-1.517.483-1,1 .277.277 1.517-.483 1-1zm20,1c.003-.555-.81-1.135-1,0-.003.555.81,1.135 1,0zm1,2c-.277-.277-1.517.483-1,1 .277.277 1.517-.483 1-1zm3,22c-.914-1.753-.344-4.989-2-6 .015,2.652-.555,5.889 2,6zm-14,18c-.277-.276-1.517.482-1,1 .277.277 1.517-.482 1-1z" fill-rule="evenodd"/>
 <path d="m339 289.89c3.043-2.729-2.728 3.042 0 0z" fill-rule="evenodd"/>
 <path d="m441 261.89c-1.28 3.386-7.414 1.919-10 4-3.33 1.003-6.868 1.797-10 3-7.111 1.555-11.832 5.5-20 6 12.062-5.606 26.127-9.208 40-13z" fill-rule="evenodd"/>
 <path d="m361 295.89c2.76-2.041 4.594 5.37 8 6-0.317 2.319 0.161 3.839 1 5 0.803 3.469-1.488 3.844-1 7-1.13-7.536-2.689-14.642-8-18z" fill-rule="evenodd"/>
 <path d="m322 296.89c3.043-2.729-2.728 3.042 0 0z" fill-rule="evenodd"/>
 <path d="m359 297.89c1.666-3.176 0.336 4.884 2 5-0.836 2.349-2.589-2.629-2-5z" fill-rule="evenodd"/>
 <path d="m370 299.89c2.58-2.513 4.045 4.573 4 8-0.607 3.726-2.117 6.549-4 9-1.447-1.515 2.966-5.652 3-9-1.071-2.595-0.635-6.698-3-8z" fill-rule="evenodd"/>
 <path d="m337 322.89c-2.701-5.298-5.392-10.607-5-19 2.225-1.442 4.822-2.511 9-2-1.896 1.769-6.401 0.931-8 3 0.632 6.036 2.066 11.267 4 16 2.874 1.397 5.08-2.726 6 0-2.926-0.261-3.072 2.261-6 2z" fill-rule="evenodd"/>
 <path d="m346 303.89c5.055 3.293 5.608 15.156-2 16 5.182-3.954 5.249-9.819 2-16z" fill-rule="evenodd"/>
 <path d="m362 315.89c-0.713-1.233-1.043-2.194 0-1 1.021 1.166 0.793 2.367 0 1z" fill-rule="evenodd"/>
 <path d="m407.999,326.89c.028.973 1.225.776 2,1 .17,2.168-3.547.453-5,1-4.983.683-5.664,5.669-12,5-1.008-3.008 2.229-1.772 4-2 4.303-3.699 10.383-5.618 17-7-.92,1.747-3.126,2.207-6,2z" fill-rule="evenodd"/>
 <path d="m382 329.89c1.955 3.111-8.172 5.957-11 2 2.319-1.828 7.734 0.776 11-2z" fill-rule="evenodd"/>
 <path d="m153,349.89c.241-2.578 1.721,1.373 4,0-.615.89-1.208,1.789 0,2-1.49,3.295-2.823-1.7-4-2z" fill-rule="evenodd"/>
 <path d="m333 344.89c3.043-2.729-2.728 3.042 0 0z" fill-rule="evenodd"/>
 <path d="m213,438.89c-2.344.475-4.044-7.397-2-5-.745,3.078 2.745,1.922 2,5z" fill-rule="evenodd"/>
 <path d="m172,385.89c-3.862-3.471-6.572-8.095-8-14 2.805.862 2.127,5.206 4,7 .682,2.985 4.371,2.963 4,7z" fill-rule="evenodd"/>
 <path d="m185,380.89c3.754,7.246 7.852,14.148 11,22 1.781.566.144,2.78 0,1-.529-.804-1.043-1.624-1-3-1.167-1.5-2.888-2.445-3-5-3.28-2.053-3.818-6.848-6-10 .409-2.409-1.826-2.174-1-5z" fill-rule="evenodd"/>
 <path d="m179,373.89c3.16-.493.371,4.962 4,4-.19.81-1.003.997-1,2 .529.804 1.043,1.624 1,3 1.171,1.496 1.243,4.09 3,5 .282,1.787-.945,2.052-1,1-.429-1.904-2.154-2.512-2-5-1.889-.111-.694-3.306-3-3v-6c-.973.027-.776,1.224-1,2-1.781-.733-.144-1.818 0-3z" fill-rule="evenodd"/>
 <path d="m173 388.89c-2.007-5.964 4.083 8.46 0 0z" fill-rule="evenodd"/>
 <path d="m189,397.89c-2.719-1.842 2.664-.12 1,3 .19,1.135 1.003.555 1,0 1.172.162.843,1.823 1,3 .903,3.367 2.237.118 4,2 .167,2.833 1.833,4.167 2,7-4.814.73.719,5.591-2,8-3.162-3.241 1.193-12.857-6-14 2.533-4.14-2.236-3.564-1-9z" fill-rule="evenodd"/>
 <path d="m193,421.89c.437-1.484 1.28.395 3,0 .319,2.319-.161,3.839-1,5-2.784.45.784-5.451-2-5z" fill-rule="evenodd"/>
 <path d="m203,427.89c3.125-.458 3.197,2.137 3,5-1.172-.161-.843-1.823-1-3-1.383,2.284-2.038,5.295-3,8-2.035-.965-2.16-3.84-2-7 1.23.437 2.054,1.279 2,3 2.208-.125.425-4.242 1-6z" fill-rule="evenodd"/>
 <path d="m242,459.89c-1.454-.615.102-1.208 0,0z" fill-rule="evenodd"/>
 <path d="m241,478.89c2.236-.909-1.192,1.384-3,2-4.09,1.396-.673-1.304 3-2z" fill-rule="evenodd"/>
 <path d="m245 479.89c-2.073 2.261-5.543 3.123-9 4 2.073-2.261 5.543-3.123 9-4z" fill-rule="evenodd"/>
 <path d="m254,513.89c1.2-1.401.39-.086 0,1-1.313.354-1.573,1.761-3,2-1.833,1.166-3.386,2.614-5,4-2.09-.424-2.648.686-4,1-3.059.726-2.941-1.726-6-1 7.418-.915 13.541-3.126 18-7z" fill-rule="evenodd"/>
 <path d="m257,549.89c1.852-2.709-.257,2.286-2,2-1.852,2.709.257-2.286 2-2z" fill-rule="evenodd"/>
 <path d="m254,553.89c-4.289,3.695-10.457,6.28-18,4 1.183-2.693 5.214.004 7,0 5.189.485 7.236-6.251 11-4z" fill-rule="evenodd"/>
</svg>
